<?xml version="1.0" encoding="UTF-8" standalone="no"?>
<svg
   xmlns:dc="http://purl.org/dc/elements/1.1/"
   xmlns:cc="http://creativecommons.org/ns#"
   xmlns:rdf="http://www.w3.org/1999/02/22-rdf-syntax-ns#"
   xmlns:svg="http://www.w3.org/2000/svg"
   xmlns="http://www.w3.org/2000/svg"
   xmlns:sodipodi="http://sodipodi.sourceforge.net/DTD/sodipodi-0.dtd"
   xmlns:inkscape="http://www.inkscape.org/namespaces/inkscape"
   viewBox="0 0 562 961.27728"
   version="1.1"
   id="svg4"
   sodipodi:docname="BBB_US_Torch.svg"
   width="562"
   height="961.27728"
   inkscape:version="1.0.2-2 (e86c870879, 2021-01-15)">
  <metadata
     id="metadata10">
    <rdf:RDF>
      <cc:Work
         rdf:about="">
        <dc:format>image/svg+xml</dc:format>
        <dc:type
           rdf:resource="http://purl.org/dc/dcmitype/StillImage" />
        <dc:title></dc:title>
      </cc:Work>
    </rdf:RDF>
  </metadata>
  <defs
     id="defs8" />
  <sodipodi:namedview
     pagecolor="#ffffff"
     bordercolor="#666666"
     borderopacity="1"
     objecttolerance="10"
     gridtolerance="10"
     guidetolerance="10"
     inkscape:pageopacity="0"
     inkscape:pageshadow="2"
     inkscape:window-width="1920"
     inkscape:window-height="1051"
     id="namedview6"
     showgrid="false"
     fit-margin-top="0"
     fit-margin-left="0"
     fit-margin-right="0"
     fit-margin-bottom="0"
     inkscape:zoom="1"
     inkscape:cx="431.47736"
     inkscape:cy="751.06847"
     inkscape:window-x="-9"
     inkscape:window-y="-9"
     inkscape:window-maximized="1"
     inkscape:current-layer="svg4"
     inkscape:document-rotation="0"
     units="px" />
  <path
     d="M 438.82309,541.63751 H 122.78223 l -11.44575,37.79071 h 84.26441 l 15.98458,52.0979 h 138.43438 l 16.08325,-52.0979 h 84.16574 z M 174.38678,329.49644 c -24.21078,33.38046 -16.79065,80.06548 16.5766,104.29447 l 75.6801,54.95934 c 8.40139,6.05364 10.26194,17.79282 4.14415,26.14762 l 11.34708,8.18963 39.96146,-55.05801 c 9.27836,-12.68718 14.28817,-27.99303 14.30718,-43.71092 -0.0345,-3.99857 -0.36429,-7.98913 -0.9867,-11.93911 -3.02182,-19.52693 -13.66772,-37.05719 -29.60108,-48.74311 l -75.58142,-54.86066 c -4.20569,-2.8155 -7.06201,-7.2428 -7.89362,-12.23512 -0.0987,-0.9867 -0.0987,-1.9734 0,-2.9601 0.0257,-3.92987 1.26633,-7.75559 3.55213,-10.9524 l -11.34708,-8.28831 z m 45.58566,-220.82405 c -13.40338,18.40159 -20.6237,40.58079 -20.62208,63.34631 -0.0296,5.78208 0.43415,11.56416 1.38138,17.2673 4.41172,28.39377 20.01208,53.83763 43.31625,70.64791 l 95.11813,69.06918 c 12.46002,9.0002 20.80787,22.60543 23.18751,37.79071 0.50618,3.06616 0.77012,6.16742 0.78936,9.27501 -0.0483,12.14552 -3.95229,23.96193 -11.14974,33.74523 l 9.17634,6.6109 74.89073,-103.5051 C 471.02906,264.44314 460.2148,196.82441 411.88611,161.65832 L 297.13259,78.281951 c -7.17549,-5.19686 -11.97238,-13.04955 -13.32049,-21.80613 -1.46339,-8.74763 0.67179,-17.71533 5.92022,-24.8649 l -9.07767,-6.61091 z M 25.78936,663.1006 h 86.63249 c 17.789,-1.18103 35.31967,4.74532 48.74311,16.47794 8.4291,8.35068 13.03501,19.81189 12.72847,31.67315 v 0.59203 c 0.47766,17.0409 -9.10688,32.77041 -24.47023,40.15879 21.51012,8.2883 34.83061,20.81943 34.83061,45.88168 0,34.13991 -27.62768,51.20986 -69.75988,51.20986 H 25.69069 Z m 78.14685,75.38409 c 18.05666,0 29.60108,-5.92022 29.60108,-19.73406 0,-12.33378 -9.86703,-19.73405 -26.93698,-19.73405 H 65.75082 v 39.46811 z m 10.85373,75.08807 c 18.15533,0 29.00906,-6.41357 29.00906,-19.73406 v -0.59202 c 0,-12.43245 -9.27501,-19.73405 -30.29177,-19.73405 H 65.75082 v 41.04683 z M 202.60648,663.1006 h 86.63249 c 17.78899,-1.18103 35.31966,4.74532 48.74311,16.47794 8.39292,8.36738 12.96228,19.82649 12.62979,31.67315 v 0.59203 c 0.47766,17.0409 -9.10688,32.77041 -24.47022,40.15879 21.60878,8.2883 34.92927,20.81943 34.92927,45.88168 0,34.13991 -27.72634,51.20986 -69.85855,51.20986 h -88.60589 z m 77.85083,75.38409 c 18.05666,0 29.60108,-5.92022 29.60108,-19.73406 0,-12.33378 -9.86702,-19.73405 -26.83831,-19.73405 h -41.1455 v 39.46811 z m 10.85373,75.08807 c 18.15533,0 29.00906,-6.41357 29.00906,-19.73406 v -0.59202 c 0,-12.43245 -9.27501,-19.73405 -30.29177,-19.73405 h -47.95375 v 41.04683 z M 378.43689,663.1006 h 86.63249 c 17.78899,-1.18103 35.31966,4.74532 48.74311,16.47794 8.42909,8.35068 13.035,19.81189 12.72846,31.67315 v 0.59203 c 0.47766,17.0409 -9.10688,32.77041 -24.47022,40.15879 21.60878,8.2883 34.92927,20.81943 34.92927,45.88168 0,34.13991 -27.72634,51.20986 -69.85855,51.20986 h -88.80323 z m 77.85083,75.38409 c 18.05666,0 29.60108,-5.92022 29.60108,-19.73406 0,-12.33378 -9.86702,-19.73405 -26.83831,-19.73405 h -40.65215 v 39.46811 z m 10.85373,75.08807 c 18.15533,0 29.10773,-6.41357 29.10773,-19.73406 v -0.59202 c 0,-12.43245 -9.37367,-19.73405 -30.39044,-19.73405 h -47.4604 v 41.04683 z M 25,928.81963 l 3.25612,-3.74947 c 4.39964,4.27772 10.34408,6.59143 16.47793,6.41356 6.3149,0 10.55772,-3.25612 10.55772,-7.69628 0,-4.24282 -2.36809,-6.61091 -12.33378,-8.68298 -9.9657,-2.07208 -15.78724,-5.72288 -15.78724,-13.22182 0.66708,-7.8189 7.70551,-13.51242 15.49123,-12.53112 6.02325,-0.18747 11.91102,1.81014 16.5766,5.62421 l -3.15745,3.94681 c -3.75203,-3.51636 -8.67266,-5.51976 -13.81383,-5.62421 -6.11756,0 -9.86703,3.25612 -9.86703,7.40027 0,4.34149 2.46676,6.80825 12.82713,8.97899 10.36038,2.17075 15.2939,5.92022 15.2939,12.92581 0,7.89362 -6.70958,13.02447 -16.08326,13.02447 C 37.32638,935.92825 30.37002,933.49175 25,928.81963 Z m 45.09231,-2.26942 v -20.42474 h -4.83484 v -4.44017 h 4.83484 v -9.86702 h 5.13085 v 9.86702 h 11.05107 v 4.44017 H 75.22316 v 19.73405 c 0,4.14415 2.36809,5.6242 5.92022,5.6242 1.75005,0.0326 3.48029,-0.37455 5.03218,-1.18404 v 4.34149 c -1.90607,1.03087 -4.05011,1.54135 -6.21622,1.48006 -5.6017,0.72542 -10.42153,-3.94983 -9.86703,-9.57102 z m 20.72076,-0.88803 c 0,-7.10426 6.01888,-10.9524 14.89921,-10.9524 3.60619,-0.0434 7.1984,0.45595 10.65638,1.48005 v -1.18404 c 0,-6.11756 -3.84814,-9.27501 -9.86702,-9.27501 -3.66702,0.0533 -7.27519,0.92997 -10.55772,2.56543 l -1.87474,-4.24282 c 3.97722,-1.88855 8.32564,-2.86611 12.72847,-2.86144 4.09421,-0.25911 8.12852,1.08564 11.24841,3.74947 2.46676,2.67397 3.74947,6.23596 3.55213,9.86703 v 20.72075 h -5.22953 v -5.13085 c -2.99152,3.7959 -7.60125,5.95442 -12.43245,5.82155 -6.61091,0 -13.12314,-3.45346 -13.12314,-10.55772 z m 25.65426,-2.76277 v -3.25612 c -3.20093,-0.9643 -6.52403,-1.46278 -9.86702,-1.48005 -6.51224,0 -9.86703,2.76276 -9.86703,7.00559 0,4.34149 4.04548,6.80824 8.78166,6.80824 5.46328,0.3049 10.23821,-3.65268 10.95239,-9.07766 z m 13.91251,-21.21411 h 5.22953 v 8.88033 c 2.05801,-6.00675 7.76162,-9.99529 14.10984,-9.86703 v 5.42687 c -8.32632,-0.0701 -14.79373,7.23477 -13.71516,15.49123 v 13.51782 h -5.22953 z m 27.03565,24.86491 v -20.42474 h -4.83484 v -4.44017 h 4.83484 v -9.86702 h 5.72288 v 9.86702 h 11.05107 v 4.44017 h -11.05107 v 19.73405 c 0,4.14415 2.36809,5.6242 5.82155,5.6242 1.75004,0.0326 3.48028,-0.37455 5.03218,-1.18404 v 4.34149 c -1.90608,1.03087 -4.05011,1.54135 -6.21623,1.48006 -5.78982,1.09324 -10.99232,-3.71288 -10.36038,-9.57102 z m 38.77742,-36.80401 h 5.82154 l 13.41916,38.08672 12.9258,-38.28406 h 4.3415 l 12.9258,38.28406 13.51783,-38.08672 h 5.52553 l -16.77394,46.07901 h -4.53884 l -12.9258,-37.19869 -12.92581,37.19869 h -4.44016 z m 75.48275,-0.9867 h 5.92022 v 5.52553 h -5.92022 z m 0,12.9258 h 5.22952 v 33.8439 h -5.22952 z m 17.2673,24.86491 v -20.42474 h -4.83485 v -4.44017 h 4.83485 v -9.86702 h 5.13085 v 9.86702 h 11.05107 v 4.44017 h -11.05107 v 19.73405 c 0,4.14415 2.36809,5.6242 5.92022,5.6242 1.74646,0.01 3.47319,-0.39468 5.03218,-1.18404 v 4.34149 c -1.94184,1.03039 -4.11744,1.54029 -6.3149,1.48006 -5.59197,0.73992 -10.39398,-3.96512 -9.76835,-9.57102 z m 23.28618,-38.77741 h 5.22952 v 19.73405 c 2.44702,-4.24593 7.04178,-6.79014 11.9391,-6.61091 7.63652,-0.50726 13.93994,5.8896 13.32049,13.51783 v 21.01676 h -5.22952 v -19.73405 c 0.51693,-5.6497 -4.21733,-10.38396 -9.86703,-9.86703 -6.00685,-0.38136 -10.95266,4.65771 -10.45905,10.65639 v 19.73406 h -5.22952 z m 70.94392,6.70957 h -15.78724 v -4.73617 h 37.00135 v 4.73617 h -15.78725 v 41.04683 h -5.42686 z m 28.31836,7.20293 h 5.13086 v 8.88033 c 2.12116,-6.00253 7.84316,-9.97614 14.20852,-9.86703 v 5.42687 c -8.33541,-0.0622 -14.82626,7.2173 -13.81384,15.49123 v 13.51782 h -5.13085 z m 24.66757,21.21411 V 901.6853 h 5.13085 v 19.73406 c -0.44184,5.62226 4.24477,10.30884 9.86703,9.86702 6.00685,0.38146 10.95266,-4.65771 10.45905,-10.65639 v -19.73405 h 5.13085 v 33.8439 h -5.13085 v -5.92021 c -2.4784,4.21387 -7.05231,6.74652 -11.9391,6.6109 -7.30244,0.57683 -13.54057,-5.20597 -13.51783,-12.53112 z m 37.10002,8.2883 2.56543,-3.55213 c 3.48191,2.61646 7.68477,4.0978 12.03777,4.24282 4.24282,0 7.20293,-2.07207 7.20293,-5.32819 0,-3.45346 -4.04548,-4.73617 -8.68299,-6.01889 -4.6375,-1.28271 -11.44575,-3.25612 -11.44575,-9.86702 0,-5.82155 4.93352,-9.86703 11.84044,-9.86703 4.44016,0.0987 8.77178,1.38138 12.53112,3.74947 l -2.36809,3.74947 c -2.95718,-1.90974 -6.35401,-3.0307 -9.86702,-3.25612 -4.04548,0 -6.70958,2.07208 -6.70958,4.93352 0,3.25611 4.34149,4.44016 8.97899,5.82154 4.6375,1.38138 11.14974,3.6508 11.14974,9.86703 0,6.41356 -5.42686,9.86702 -12.33378,9.86702 -5.30768,0.22221 -10.5417,-1.30291 -14.89921,-4.34149 z m 36.21199,-4.6375 v -20.42474 h -4.93352 v -4.44017 h 4.93352 v -9.86702 h 5.13085 v 9.86702 h 11.05107 v 4.44017 h -11.05107 v 19.73405 c 0,4.14415 2.36809,5.6242 5.82155,5.6242 1.77606,0.0197 3.54226,-0.39468 5.13085,-1.18404 v 4.34149 c -1.94648,1.01797 -4.1188,1.5271 -6.3149,1.48006 -5.59197,0.73992 -10.39398,-3.96512 -9.76835,-9.57102 z"
     fill="#FFF"
     id="path2"
     style="fill:#005f86;fill-opacity:1;stroke-width:9.86703"
     sodipodi:nodetypes="ccccccccccccccccccccccccccccccccccccccccccccccssccsssccscssscccccccccssccsssccscssscccccccccssccsssccscsssccccccsscccccssscccccccccccccscccccsccsccccccccccscccsccccccccccccccccccccccsccccccccccccccccccccccccccccccccccccccccsccccccccccccccccccccccccccccccccccccccccccccccccccccsssccccssscccccccccccccsccccc" />
</svg>
